<svg version="1.2" xmlns="http://www.w3.org/2000/svg" viewBox="0 0 35 34" width="100" height="97">
	<title>Agulha_logo-1-svg</title>
	<style>
		.s0 { fill: #ffffff } 
	</style>
	<g id="Agulha">
		<path class="s0" d="m13.8 0q4.4 0 8.7 0c2.5 8 5 16 7.4 24.1q1.5 4.4 2.8 8.9c-3 0.1-6.1 0.1-9.2 0-3.2-11-6.6-22-9.7-33z"/>
		<path class="s0" d="m6.3 24c1.5-0.1 3 0.8 4 2 1.2 2 0.9 4.9-1 6.4-1.7 1.4-4.4 1.3-5.9-0.4-1.7-1.6-1.9-4.6-0.3-6.4 0.8-0.9 1.9-1.5 3.2-1.6z"/>
	</g>
	<filter id="f0">
		<feFlood flood-color="#ffffff" flood-opacity="1" />
		<feBlend mode="normal" in2="SourceGraphic"/>
		<feComposite in2="SourceAlpha" operator="in" />
	</filter>
	<g id="Layer_1" filter="url(#f0)">
	</g>
</svg>